<svg width="85" height="90" viewBox="0 0 85 90" fill="none" xmlns="http://www.w3.org/2000/svg">
<path d="M79.3515 55.125C70.3262 50.175 62.0134 53.55 45.3878 45.225C62.2509 36.675 70.0887 39.825 79.3515 34.875C84.8142 31.95 86.4767 26.775 83.6266 22.5C81.014 18.225 75.5514 16.875 70.0887 19.8C61.3009 24.75 60.1133 33.075 44.2003 42.75C44.6753 24.525 51.8006 19.575 51.8006 9.67501C51.8006 3.60001 47.7629 0 42.5377 0C37.0751 0 33.2749 3.60001 33.2749 9.67501C33.2749 19.8 40.8752 24.75 41.3502 43.2C24.9621 33.3 24.0121 24.75 14.9868 19.8C9.52413 16.875 4.06144 18.225 1.21134 22.5C-1.40124 26.775 0.261312 31.95 5.724 34.875C14.7493 39.825 22.5871 36.675 39.4501 45.225C22.8246 53.775 14.5118 50.175 5.724 55.125C0.261312 58.05 -1.40124 63.225 1.21134 67.5C4.06144 71.775 9.52413 73.125 14.9868 70.2C23.7746 65.025 25.1997 57.15 41.3502 47.7C40.6377 65.25 33.2749 70.425 33.2749 80.325C33.2749 86.175 37.0751 90 42.5377 90C47.7629 90 51.8006 86.175 51.8006 80.325C51.8006 70.425 44.9128 65.25 44.2003 47.925C59.8758 57.375 61.3009 65.025 70.0887 70.2C75.5514 73.125 81.014 71.775 83.6266 67.5C86.4767 63.225 84.8142 58.05 79.3515 55.125Z" fill="black"/>
</svg>
