<svg width="24" height="24" viewBox="0 0 24 24" fill="none" xmlns="http://www.w3.org/2000/svg">
<path d="M22.4051 14.7C19.8568 13.38 17.5097 14.28 12.8154 12.06C17.5767 9.78 19.7897 10.62 22.4051 9.3C23.9475 8.52 24.417 7.14 23.6122 6C22.8746 4.86 21.3321 4.5 19.7897 5.28C17.3085 6.6 16.9732 8.82 12.4801 11.4C12.6142 6.54 14.626 5.22 14.626 2.58C14.626 0.960002 13.486 0 12.0107 0C10.4683 0 9.39527 0.960002 9.39527 2.58C9.39527 5.28 11.5412 6.6 11.6754 11.52C7.04814 8.88 6.77989 6.6 4.23157 5.28C2.68916 4.5 1.14676 4.86 0.342027 6C-0.395645 7.14 0.0737823 8.52 1.61619 9.3C4.16451 10.62 6.37753 9.78 11.1389 12.06C6.44459 14.34 4.09745 13.38 1.61619 14.7C0.0737823 15.48 -0.395645 16.86 0.342027 18C1.14676 19.14 2.68916 19.5 4.23157 18.72C6.71283 17.34 7.1152 15.24 11.6754 12.72C11.4742 17.4 9.39527 18.78 9.39527 21.42C9.39527 22.98 10.4683 24 12.0107 24C13.486 24 14.626 22.98 14.626 21.42C14.626 18.78 12.6813 17.4 12.4801 12.78C16.9061 15.3 17.3085 17.34 19.7897 18.72C21.3321 19.5 22.8746 19.14 23.6122 18C24.417 16.86 23.9475 15.48 22.4051 14.7Z" fill="#090909"/>
</svg>
